<svg xmlns="http://www.w3.org/2000/svg" fill="none" viewBox="0 0 34 26"><path d="M28.496 2.09604C26.3817 1.12588 24.1143.4111 21.7437.00171731c-.0432-.00790096-.0863.01184399-.1086.05133469-.2916.518637-.6146 1.195238-.8408 1.727048-2.5498-.38173-5.0865-.38173-7.584 0-.2262-.54363-.561-1.208411-.8539-1.727048-.0222-.0381731-.0653-.05791804-.1085-.05133469C9.87853.409792 7.61118 1.12457 5.49549 2.09604c-.01832.0079-.03402.02108-.04444.03818C1.15036 8.55936-.0277794 14.8266.550177 21.0161c.002615.0303.019613.0592.04315.0777C3.4308 23.1775 6.17938 24.4426 8.87692 25.2811c.04317.0131.08891-.0026.11639-.0382.6381-.8714 1.20689-1.7902 1.69459-2.7565.0288-.0565.0013-.1237-.0575-.1461-.90223-.3422-1.76133-.7595-2.58773-1.2334-.06537-.0381-.0706-.1316-.01047-.1764.17391-.1303.34786-.2659.51391-.4028.03005-.025.07191-.0303.10724-.0145 5.42905 2.4787 11.30675 2.4787 16.67175 0 .0353-.0171.0772-.0118.1085.0132.1661.1369.3401.2738.5153.4041.0601.0448.0562.1383-.0092.1764-.8264.4831-1.6855.8912-2.589 1.2321-.0589.0224-.085.0909-.0562.1474.4981.9649 1.0669 1.8837 1.6933 2.7552.0261.0369.0732.0526.1164.0395 2.7106-.8385 5.4591-2.1036 8.2966-4.1873.0249-.0185.0406-.0461.0432-.0764.6917-7.1558-1.1586-13.37158-4.9048-18.88187-.0092-.01841-.0248-.03159-.0432-.03949ZM11.4987 17.2473c-1.63456 0-2.98137-1.5006-2.98137-3.3435 0-1.8429 1.32069-3.3435 2.98137-3.3435 1.6737 0 3.0074 1.5137 2.9813 3.3435 0 1.8429-1.3207 3.3435-2.9813 3.3435Zm11.0229 0c-1.6344 0-2.9812-1.5006-2.9812-3.3435 0-1.8429 1.3206-3.3435 2.9812-3.3435 1.6738 0 3.0075 1.5137 2.9814 3.3435 0 1.8429-1.3076 3.3435-2.9814 3.3435Z" fill="#fff"/><script xmlns=""/></svg>